<?xml version="1.0" standalone="no"?>
<!DOCTYPE svg PUBLIC "-//W3C//DTD SVG 20010904//EN"
 "http://www.w3.org/TR/2001/REC-SVG-20010904/DTD/svg10.dtd">
<svg version="1.0" xmlns="http://www.w3.org/2000/svg"
 width="193.000000pt" height="193.000000pt" viewBox="0 0 193.000000 193.000000"
 preserveAspectRatio="xMidYMid meet">
<metadata>
Created by potrace 1.11, written by Peter Selinger 2001-2013
</metadata>
<g transform="translate(0.000000,193.000000) scale(0.100000,-0.100000)"
fill="#000000" stroke="none">
<path d="M763 1907 c-17 -7 -55 -34 -85 -60 -29 -26 -63 -50 -75 -53 -12 -3
-60 6 -106 21 -114 36 -137 27 -172 -68 -21 -55 -38 -68 -86 -62 -34 4 -34 4
-9 -10 14 -8 41 -14 61 -15 30 0 45 8 82 45 48 47 60 51 99 36 25 -10 90 -63
73 -59 -33 7 -107 -16 -135 -42 -28 -26 -30 -34 -29 -87 2 -74 -6 -101 -34
-105 -16 -2 -18 -5 -7 -9 29 -12 60 10 80 55 22 52 61 77 121 78 22 0 42 -2
45 -5 10 -10 -9 -57 -36 -88 -30 -32 -116 -64 -144 -53 -23 9 -72 -23 -94 -61
-13 -22 -29 -35 -42 -35 -22 0 -60 -33 -60 -52 0 -6 6 -3 14 8 8 10 24 20 35
20 12 1 27 2 35 3 7 0 30 17 51 37 27 25 45 34 59 31 12 -3 32 -8 45 -11 35
-8 35 -10 10 -61 -25 -49 -69 -81 -97 -70 -12 4 -14 3 -7 -4 17 -17 58 -19 85
-5 14 7 47 35 73 63 67 71 79 68 71 -16 -3 -36 -13 -77 -21 -90 -9 -13 -18
-54 -21 -91 -4 -58 0 -82 31 -174 37 -109 97 -238 159 -339 35 -57 48 -131 33
-180 -8 -24 -23 -23 -245 11 -87 13 -317 68 -342 82 -17 8 -18 -3 -18 -176 l0
-185 68 -20 c132 -39 283 -70 442 -88 87 -10 486 -10 580 0 146 16 357 58 463
93 l47 16 0 184 c0 173 -1 184 -17 176 -47 -25 -321 -83 -457 -98 l-56 -6 -1
46 c-1 25 -2 52 -2 59 -1 6 2 28 6 47 l7 35 87 0 c110 0 180 23 190 63 4 15
-1 52 -11 87 -9 33 -21 77 -25 97 -17 77 -59 120 -153 157 -18 7 -35 27 -52
63 -42 89 -119 157 -206 182 -30 9 -70 25 -87 36 -34 20 -43 53 -20 67 21 13
63 93 81 151 24 81 21 243 -6 304 -47 109 -168 164 -275 125z"/>
</g>
</svg>
